<mxfile host="app.diagrams.net" modified="2022-12-29T06:53:20.735Z" agent="5.0 (X11)" etag="9cBYMHuNkTC7LuVpCnDF" version="20.7.4" type="github">
  <diagram id="AbTQmVC55lPCEFAPiU2C" name="Page-1">
    <mxGraphModel dx="1434" dy="757" grid="1" gridSize="10" guides="1" tooltips="1" connect="1" arrows="1" fold="1" page="1" pageScale="1" pageWidth="850" pageHeight="1100" math="0" shadow="0">
      <root>
        <mxCell id="0" />
        <mxCell id="1" parent="0" />
        <mxCell id="rfZ32k7XFtMw9jHrx5v--1" value="" style="rounded=0;whiteSpace=wrap;html=1;fontFamily=Georgia;" parent="1" vertex="1">
          <mxGeometry x="120" y="80" width="480" height="560" as="geometry" />
        </mxCell>
        <mxCell id="rfZ32k7XFtMw9jHrx5v--2" value="&lt;div&gt;Guest&lt;/div&gt;" style="shape=umlActor;verticalLabelPosition=bottom;verticalAlign=top;html=1;outlineConnect=0;fontFamily=Georgia;" parent="1" vertex="1">
          <mxGeometry x="40" y="280" width="30" height="60" as="geometry" />
        </mxCell>
        <mxCell id="rfZ32k7XFtMw9jHrx5v--4" value="&lt;div&gt;Guest Services&lt;/div&gt;" style="text;html=1;strokeColor=none;fillColor=none;align=center;verticalAlign=middle;whiteSpace=wrap;rounded=0;fontFamily=Georgia;" parent="1" vertex="1">
          <mxGeometry x="300" y="50" width="120" height="30" as="geometry" />
        </mxCell>
        <mxCell id="rfZ32k7XFtMw9jHrx5v--6" value="&lt;div&gt;Administrator&lt;/div&gt;" style="shape=umlActor;verticalLabelPosition=bottom;verticalAlign=top;html=1;outlineConnect=0;fontFamily=Georgia;" parent="1" vertex="1">
          <mxGeometry x="690" y="550" width="30" height="60" as="geometry" />
        </mxCell>
        <mxCell id="rfZ32k7XFtMw9jHrx5v--7" value="&lt;div&gt;Log in&lt;br&gt;&lt;/div&gt;" style="ellipse;whiteSpace=wrap;html=1;fontFamily=Georgia;" parent="1" vertex="1">
          <mxGeometry x="210" y="120" width="120" height="80" as="geometry" />
        </mxCell>
        <mxCell id="rfZ32k7XFtMw9jHrx5v--8" value="Sign up" style="ellipse;whiteSpace=wrap;html=1;fontFamily=Georgia;" parent="1" vertex="1">
          <mxGeometry x="290" y="270" width="120" height="80" as="geometry" />
        </mxCell>
        <mxCell id="rfZ32k7XFtMw9jHrx5v--9" value="Posting a comment" style="ellipse;whiteSpace=wrap;html=1;fontFamily=Georgia;" parent="1" vertex="1">
          <mxGeometry x="290" y="430" width="120" height="80" as="geometry" />
        </mxCell>
        <mxCell id="rfZ32k7XFtMw9jHrx5v--15" value="&lt;div&gt;E-mail Service&lt;/div&gt;" style="rounded=0;whiteSpace=wrap;html=1;fontFamily=Georgia;" parent="1" vertex="1">
          <mxGeometry x="640" y="280" width="120" height="60" as="geometry" />
        </mxCell>
        <mxCell id="rfZ32k7XFtMw9jHrx5v--18" value="Reviewing a comment" style="ellipse;whiteSpace=wrap;html=1;fontFamily=Georgia;" parent="1" vertex="1">
          <mxGeometry x="290" y="540" width="120" height="80" as="geometry" />
        </mxCell>
        <mxCell id="ZPIQd6IKqNILtPh4H4fe-1" value="&lt;div&gt;&lt;font face=&quot;Georgia&quot;&gt;Logging in with an external account&lt;/font&gt;&lt;/div&gt;" style="ellipse;whiteSpace=wrap;html=1;" vertex="1" parent="1">
          <mxGeometry x="470" y="120" width="120" height="80" as="geometry" />
        </mxCell>
        <mxCell id="ZPIQd6IKqNILtPh4H4fe-3" value="Extends" style="endArrow=none;dashed=1;html=1;dashPattern=1 3;strokeWidth=2;rounded=0;fontFamily=Georgia;entryX=0;entryY=0.5;entryDx=0;entryDy=0;exitX=1;exitY=0.5;exitDx=0;exitDy=0;" edge="1" parent="1" source="rfZ32k7XFtMw9jHrx5v--7" target="ZPIQd6IKqNILtPh4H4fe-1">
          <mxGeometry width="50" height="50" relative="1" as="geometry">
            <mxPoint x="400" y="420" as="sourcePoint" />
            <mxPoint x="450" y="370" as="targetPoint" />
          </mxGeometry>
        </mxCell>
        <mxCell id="ZPIQd6IKqNILtPh4H4fe-4" value="" style="endArrow=none;html=1;rounded=0;fontFamily=Georgia;entryX=0;entryY=0.5;entryDx=0;entryDy=0;exitX=1;exitY=0.5;exitDx=0;exitDy=0;" edge="1" parent="1" source="rfZ32k7XFtMw9jHrx5v--8" target="rfZ32k7XFtMw9jHrx5v--15">
          <mxGeometry width="50" height="50" relative="1" as="geometry">
            <mxPoint x="400" y="390" as="sourcePoint" />
            <mxPoint x="450" y="340" as="targetPoint" />
          </mxGeometry>
        </mxCell>
        <mxCell id="ZPIQd6IKqNILtPh4H4fe-5" value="" style="endArrow=none;html=1;rounded=0;fontFamily=Georgia;entryX=0;entryY=0.5;entryDx=0;entryDy=0;exitX=0.5;exitY=0.5;exitDx=0;exitDy=0;exitPerimeter=0;" edge="1" parent="1" source="rfZ32k7XFtMw9jHrx5v--2" target="rfZ32k7XFtMw9jHrx5v--7">
          <mxGeometry width="50" height="50" relative="1" as="geometry">
            <mxPoint x="400" y="390" as="sourcePoint" />
            <mxPoint x="450" y="340" as="targetPoint" />
          </mxGeometry>
        </mxCell>
        <mxCell id="ZPIQd6IKqNILtPh4H4fe-6" value="" style="endArrow=none;html=1;rounded=0;fontFamily=Georgia;entryX=0;entryY=0.5;entryDx=0;entryDy=0;exitX=0.5;exitY=0.5;exitDx=0;exitDy=0;exitPerimeter=0;" edge="1" parent="1" source="rfZ32k7XFtMw9jHrx5v--2" target="rfZ32k7XFtMw9jHrx5v--8">
          <mxGeometry width="50" height="50" relative="1" as="geometry">
            <mxPoint x="400" y="390" as="sourcePoint" />
            <mxPoint x="450" y="340" as="targetPoint" />
          </mxGeometry>
        </mxCell>
        <mxCell id="ZPIQd6IKqNILtPh4H4fe-7" value="" style="endArrow=none;html=1;rounded=0;fontFamily=Georgia;entryX=0.5;entryY=0.5;entryDx=0;entryDy=0;entryPerimeter=0;exitX=0;exitY=0.5;exitDx=0;exitDy=0;" edge="1" parent="1" source="rfZ32k7XFtMw9jHrx5v--9" target="rfZ32k7XFtMw9jHrx5v--2">
          <mxGeometry width="50" height="50" relative="1" as="geometry">
            <mxPoint x="400" y="390" as="sourcePoint" />
            <mxPoint x="450" y="340" as="targetPoint" />
          </mxGeometry>
        </mxCell>
        <mxCell id="ZPIQd6IKqNILtPh4H4fe-8" value="" style="endArrow=none;html=1;rounded=0;fontFamily=Georgia;entryX=0.5;entryY=0.5;entryDx=0;entryDy=0;entryPerimeter=0;exitX=1;exitY=0.5;exitDx=0;exitDy=0;" edge="1" parent="1" source="rfZ32k7XFtMw9jHrx5v--18" target="rfZ32k7XFtMw9jHrx5v--6">
          <mxGeometry width="50" height="50" relative="1" as="geometry">
            <mxPoint x="400" y="390" as="sourcePoint" />
            <mxPoint x="450" y="340" as="targetPoint" />
          </mxGeometry>
        </mxCell>
        <mxCell id="ZPIQd6IKqNILtPh4H4fe-9" value="External Websites" style="rounded=0;whiteSpace=wrap;html=1;fontFamily=Georgia;" vertex="1" parent="1">
          <mxGeometry x="640" y="130" width="120" height="60" as="geometry" />
        </mxCell>
        <mxCell id="ZPIQd6IKqNILtPh4H4fe-10" value="" style="endArrow=none;html=1;rounded=0;fontFamily=Georgia;entryX=0;entryY=0.5;entryDx=0;entryDy=0;exitX=1;exitY=0.5;exitDx=0;exitDy=0;" edge="1" parent="1" source="ZPIQd6IKqNILtPh4H4fe-1" target="ZPIQd6IKqNILtPh4H4fe-9">
          <mxGeometry width="50" height="50" relative="1" as="geometry">
            <mxPoint x="400" y="390" as="sourcePoint" />
            <mxPoint x="450" y="340" as="targetPoint" />
          </mxGeometry>
        </mxCell>
      </root>
    </mxGraphModel>
  </diagram>
</mxfile>
